<?xml version="1.0" encoding="UTF-8"?><svg id="uuid-ff6164fe-b4af-447f-aa55-1c3b9716b94f" xmlns="http://www.w3.org/2000/svg" width="18px" viewBox="0 0 747.03 633.3"><path d="m561.98,185.5c-2.4-2.4-6.4-2.4-8.9,0l-203.3,203.3,8.9,8.9,203.3-203.3c2.4-2.5,2.4-6.5,0-8.9h0Zm-185.9,132.5c-2.4-2.4-6.4-2.4-8.9,0l-44.1,44.1,8.9,8.9,44.1-44.1c2.4-2.4,2.4-6.4,0-8.9ZM628.17,50.2c19.2,0,37.3,7.8,50.5,22,25.5,27.4,23.1,70.7-3.4,97.1l-120,120c-2.4,2.4-2.4,6.4,0,8.9,2.4,2.4,6.4,2.4,8.9,0l119.8-119.8c31.7-31.7,33.4-85.2,1.7-116.8-15.9-15.9-36.7-23.8-57.5-23.8s-41.7,7.9-57.6,23.8l-274,274,8.9,8.9L579.48,70.5c13-13.1,30.3-20.3,48.7-20.3h-.01Zm-234.2,143.6c-2.4-2.4-6.4-2.4-8.9,0l-115.1,115.2,8.9,8.9,115.2-115.2c2.4-2.4,2.4-6.4-.1-8.9h0Zm30.6-21.7l128.3-128.3c20.1-20.1,46.8-31.2,75.3-31.2,21.6,0,42.1,6.5,59.5,18.3,2.5,1.7,5.9,1.5,8-.7,2.8-2.8,2.3-7.5-1-9.7-20-13.6-43.3-20.5-66.5-20.5-30.4,0-60.9,11.6-84.1,34.8l-128.4,128.5c-2.4,2.4-2.4,6.4,0,8.9,2.5,2.4,6.5,2.4,8.9-.1h0Zm109,147.8c-2.4-2.4-6.4-2.4-8.9,0l-95.4,95.4c-2.4,2.4-2.4,6.4,0,8.9h0c2.4,2.4,6.4,2.4,8.8,0l95.4-95.4c2.5-2.5,2.5-6.4.1-8.9h0Zm143.5-99.3l-247.7,247.8,8.9,8.8,247.8-247.8c2.4-2.4,2.4-6.4,0-8.9-2.6-2.3-6.5-2.3-9,.1Zm50-167.4c-2.2-3.3-6.9-3.9-9.7-1.1-2.1,2.1-2.4,5.5-.7,8,11.6,17.3,17.9,37.6,17.9,59,0,26.4-9.5,51.3-27,70.8-2.3,2.5-2.3,6.3.1,8.7,2.5,2.5,6.7,2.5,9-.1,36.7-40.8,40.1-100.8,10.4-145.3h0Zm-134.6,110.6l38.5-38.5c2.4-2.4,2.4-6.4,0-8.9-2.4-2.4-6.4-2.4-8.9,0l-38.5,38.5c-2.4,2.4-2.4,6.4,0,8.8,2.5,2.5,6.5,2.5,8.9.1h0Zm65.8-76.5c-8.5-8-19.3-12.1-30.2-12.1s-22.4,4.3-31,12.8l-199.3,199.5c-2.4,2.4-2.4,6.4,0,8.9,2.4,2.4,6.4,2.4,8.9,0l198.4-198.6c5.1-5.1,11.7-8.9,18.9-9.8,9.8-1.2,19.3,2,26.2,8.9,5.9,5.9,9.2,13.8,9.2,22.1s-3.3,16.2-9.2,22.1l-274,274,8.9,8.8,272.7-272.7c17.5-17.3,18.4-46.8.5-63.9h0Z" style="fill:#fff;"/><g><rect x="323.98" y="245.95" width="120.58" height="234.08" transform="translate(-144.12 378.04) rotate(-45)" style="fill:#f0f0f1;"/><path d="m444.28,470.9l-191.6-191.6h0l-53-53c-22.9-22.8-52.8-34.3-82.7-34.3s-59.9,11.4-82.7,34.3c-45.7,45.7-45.7,119.8,0,165.4l147,147h0l66.6,66.6c2.4,2.4,6.3,2.4,8.7,0,0,0,0-.1.1-.1s.1,0,.2-.1l14.9-14.9,1.3,36.6c0,.9.2,1.7.6,2.5.3.8.7,1.6,1.4,2.2,2.4,2.4,6.3,2.4,8.7,0l.3-.3c.1-.1.2-.2.3-.3l158.4-158.4h0l1.5-1.6Z" style="fill:#f0f0f1;"/><path d="m460.45,452.32l191.6-191.6h0l53-53c22.8-22.9,34.3-52.8,34.3-82.7s-11.4-59.9-34.3-82.7c-45.7-45.7-119.8-45.7-165.4,0l-147,147h0l-66.6,66.6c-2.4,2.4-2.4,6.3,0,8.7,0,0,.1,0,.1.1s0,.1.1.2l14.9,14.9-36.6,1.3c-.9,0-1.7.2-2.5.6-.8.3-1.6.7-2.2,1.4-2.4,2.4-2.4,6.3,0,8.7l.3.3c.1.1.2.2.3.3l158.4,158.4h0l1.6,1.5Z" style="fill:#f0f0f1;"/></g></svg>
